<svg width="43" height="41" viewBox="0 0 43 41" fill="none" xmlns="http://www.w3.org/2000/svg">
<g opacity="0.21">
<mask id="path-1-outside-1_0_197" maskUnits="userSpaceOnUse" x="-0.0950928" y="0.442383" width="43" height="40" fill="black">
<rect fill="white" x="-0.0950928" y="0.442383" width="43" height="40"/>
<path fill-rule="evenodd" clip-rule="evenodd" d="M0.904907 20.4424V35.4424C0.904907 37.6515 2.69577 39.4424 4.90491 39.4424H21.4028H37.9008C40.1099 39.4424 41.9008 37.6515 41.9008 35.4424V20.4424V5.44238C41.9008 3.23324 40.1099 1.44238 37.9008 1.44238H21.4028H4.90491C2.69577 1.44238 0.904907 3.23324 0.904907 5.44238V20.4424Z"/>
</mask>
<path fill-rule="evenodd" clip-rule="evenodd" d="M0.904907 20.4424V35.4424C0.904907 37.6515 2.69577 39.4424 4.90491 39.4424H21.4028H37.9008C40.1099 39.4424 41.9008 37.6515 41.9008 35.4424V20.4424V5.44238C41.9008 3.23324 40.1099 1.44238 37.9008 1.44238H21.4028H4.90491C2.69577 1.44238 0.904907 3.23324 0.904907 5.44238V20.4424Z" fill="#FF8F50"/>
<path d="M1.59132 35.4424V20.4424H0.218495V35.4424H1.59132ZM4.90491 38.756C3.07486 38.756 1.59132 37.2724 1.59132 35.4424H0.218495C0.218495 38.0306 2.31667 40.1288 4.90491 40.1288V38.756ZM21.4028 38.756H4.90491V40.1288H21.4028V38.756ZM37.9008 38.756H21.4028V40.1288H37.9008V38.756ZM41.2143 35.4424C41.2143 37.2724 39.7308 38.756 37.9008 38.756V40.1288C40.489 40.1288 42.5872 38.0306 42.5872 35.4424H41.2143ZM41.2143 20.4424V35.4424H42.5872V20.4424H41.2143ZM41.2143 5.44238V20.4424H42.5872V5.44238H41.2143ZM37.9008 2.1288C39.7308 2.1288 41.2143 3.61234 41.2143 5.44238H42.5872C42.5872 2.85415 40.489 0.75597 37.9008 0.75597V2.1288ZM21.4028 2.1288H37.9008V0.75597H21.4028V2.1288ZM4.90491 2.1288H21.4028V0.75597H4.90491V2.1288ZM1.59132 5.44238C1.59132 3.61234 3.07486 2.1288 4.90491 2.1288V0.75597C2.31667 0.75597 0.218495 2.85415 0.218495 5.44238H1.59132ZM1.59132 20.4424V5.44238H0.218495V20.4424H1.59132Z" fill="#EAEAEA" mask="url(#path-1-outside-1_0_197)"/>
</g>
<path opacity="0.587821" fill-rule="evenodd" clip-rule="evenodd" d="M15.026 16.2201C15.026 18.0856 16.6575 19.5978 18.6701 19.5978C20.6826 19.5978 22.3142 18.0856 22.3142 16.2201C22.3142 14.3546 20.6826 12.8423 18.6701 12.8423C16.6575 12.8423 15.026 14.3546 15.026 16.2201ZM24.1359 19.5978C24.1359 20.9969 25.3596 22.1311 26.869 22.1311C28.3784 22.1311 29.602 20.9969 29.602 19.5978C29.602 18.1987 28.3784 17.0645 26.869 17.0645C25.3596 17.0645 24.1359 18.1987 24.1359 19.5978Z" fill="#FF8F50"/>
<path fill-rule="evenodd" clip-rule="evenodd" d="M18.6546 21.2867C14.3533 21.2867 10.8244 23.3358 10.4712 27.3661C10.452 27.5856 10.9049 28.0423 11.1334 28.0423H26.1827C26.8671 28.0423 26.8777 27.5318 26.8671 27.3667C26.6001 23.2232 23.0165 21.2867 18.6546 21.2867ZM31.8401 28.0423H28.3269V28.0422C28.3269 26.1415 27.6494 24.3874 26.506 22.9762C29.6095 23.0076 32.1437 24.4619 32.3344 27.5357C32.342 27.6595 32.3344 28.0423 31.8401 28.0423Z" fill="#FF8F50"/>
</svg>
