<svg width="178" height="51" viewBox="0 0 178 51" fill="none" xmlns="http://www.w3.org/2000/svg">
<rect y="0.292969" width="178" height="50" rx="8" fill="#949494"/>
<path d="M60.592 25.709C60.592 24.621 60.8427 23.645 61.344 22.781C61.856 21.917 62.544 21.245 63.408 20.765C64.2827 20.2743 65.2373 20.029 66.272 20.029C67.456 20.029 68.5067 20.3223 69.424 20.909C70.352 21.485 71.024 22.3063 71.44 23.373H69.248C68.96 22.7863 68.56 22.349 68.048 22.061C67.536 21.773 66.944 21.629 66.272 21.629C65.536 21.629 64.88 21.7943 64.304 22.125C63.728 22.4556 63.2747 22.9303 62.944 23.549C62.624 24.1676 62.464 24.8876 62.464 25.709C62.464 26.5303 62.624 27.2503 62.944 27.869C63.2747 28.4876 63.728 28.9676 64.304 29.309C64.88 29.6396 65.536 29.805 66.272 29.805C66.944 29.805 67.536 29.661 68.048 29.373C68.56 29.085 68.96 28.6476 69.248 28.061H71.44C71.024 29.1276 70.352 29.949 69.424 30.525C68.5067 31.101 67.456 31.389 66.272 31.389C65.2267 31.389 64.272 31.149 63.408 30.669C62.544 30.1783 61.856 29.501 61.344 28.637C60.8427 27.773 60.592 26.797 60.592 25.709ZM72.967 26.845C72.967 25.9596 73.1483 25.1756 73.511 24.493C73.8843 23.8103 74.3857 23.2823 75.015 22.909C75.655 22.525 76.359 22.333 77.127 22.333C77.8203 22.333 78.423 22.4716 78.935 22.749C79.4577 23.0156 79.8737 23.3516 80.183 23.757V22.477H82.023V31.293H80.183V29.981C79.8737 30.397 79.4523 30.7436 78.919 31.021C78.3857 31.2983 77.7777 31.437 77.095 31.437C76.3377 31.437 75.6443 31.245 75.015 30.861C74.3857 30.4663 73.8843 29.9223 73.511 29.229C73.1483 28.525 72.967 27.7303 72.967 26.845ZM80.183 26.877C80.183 26.269 80.055 25.741 79.799 25.293C79.5537 24.845 79.2283 24.5036 78.823 24.269C78.4177 24.0343 77.9803 23.917 77.511 23.917C77.0417 23.917 76.6043 24.0343 76.199 24.269C75.7937 24.493 75.463 24.829 75.207 25.277C74.9617 25.7143 74.839 26.237 74.839 26.845C74.839 27.453 74.9617 27.9863 75.207 28.445C75.463 28.9036 75.7937 29.2556 76.199 29.501C76.615 29.7356 77.0523 29.853 77.511 29.853C77.9803 29.853 78.4177 29.7356 78.823 29.501C79.2283 29.2663 79.5537 28.925 79.799 28.477C80.055 28.0183 80.183 27.485 80.183 26.877ZM88.8668 22.333C89.5601 22.333 90.1788 22.477 90.7228 22.765C91.2774 23.053 91.7094 23.4796 92.0188 24.045C92.3281 24.6103 92.4828 25.293 92.4828 26.093V31.293H90.6748V26.365C90.6748 25.5756 90.4774 24.973 90.0828 24.557C89.6881 24.1303 89.1494 23.917 88.4668 23.917C87.7841 23.917 87.2401 24.1303 86.8348 24.557C86.4401 24.973 86.2428 25.5756 86.2428 26.365V31.293H84.4188V22.477H86.2428V23.485C86.5414 23.1223 86.9201 22.8396 87.3788 22.637C87.8481 22.4343 88.3441 22.333 88.8668 22.333ZM94.2014 26.877C94.2014 25.9703 94.3827 25.1756 94.7454 24.493C95.1187 23.7996 95.6307 23.2663 96.2814 22.893C96.932 22.5196 97.6787 22.333 98.5214 22.333C99.588 22.333 100.468 22.589 101.161 23.101C101.865 23.6023 102.34 24.3223 102.585 25.261H100.617C100.457 24.8236 100.201 24.4823 99.8494 24.237C99.4974 23.9916 99.0547 23.869 98.5214 23.869C97.7747 23.869 97.1774 24.1356 96.7294 24.669C96.292 25.1916 96.0734 25.9276 96.0734 26.877C96.0734 27.8263 96.292 28.5676 96.7294 29.101C97.1774 29.6343 97.7747 29.901 98.5214 29.901C99.5774 29.901 100.276 29.437 100.617 28.509H102.585C102.329 29.405 101.849 30.1196 101.145 30.653C100.441 31.1756 99.5667 31.437 98.5214 31.437C97.6787 31.437 96.932 31.2503 96.2814 30.877C95.6307 30.493 95.1187 29.9596 94.7454 29.277C94.3827 28.5836 94.2014 27.7836 94.2014 26.877ZM112.483 26.669C112.483 26.9996 112.462 27.2983 112.419 27.565H105.683C105.736 28.269 105.998 28.8343 106.467 29.261C106.936 29.6876 107.512 29.901 108.195 29.901C109.176 29.901 109.87 29.4903 110.275 28.669H112.243C111.976 29.4796 111.491 30.1463 110.787 30.669C110.094 31.181 109.23 31.437 108.195 31.437C107.352 31.437 106.595 31.2503 105.923 30.877C105.262 30.493 104.739 29.9596 104.355 29.277C103.982 28.5836 103.795 27.7836 103.795 26.877C103.795 25.9703 103.976 25.1756 104.339 24.493C104.712 23.7996 105.23 23.2663 105.891 22.893C106.563 22.5196 107.331 22.333 108.195 22.333C109.027 22.333 109.768 22.5143 110.419 22.877C111.07 23.2396 111.576 23.7516 111.939 24.413C112.302 25.0636 112.483 25.8156 112.483 26.669ZM110.579 26.093C110.568 25.421 110.328 24.8823 109.859 24.477C109.39 24.0716 108.808 23.869 108.115 23.869C107.486 23.869 106.947 24.0716 106.499 24.477C106.051 24.8716 105.784 25.4103 105.699 26.093H110.579ZM116.102 19.453V31.293H114.278V19.453H116.102Z" fill="white"/>
</svg>
