<svg width="178" height="51" viewBox="0 0 178 51" fill="none" xmlns="http://www.w3.org/2000/svg">
<rect y="0.292969" width="178" height="50" rx="8" fill="#FE4242"/>
<path d="M64.864 31.405C64.1173 31.405 63.4453 31.277 62.848 31.021C62.2507 30.7543 61.7813 30.381 61.44 29.901C61.0987 29.421 60.928 28.861 60.928 28.221H62.88C62.9227 28.701 63.1093 29.0956 63.44 29.405C63.7813 29.7143 64.256 29.869 64.864 29.869C65.4933 29.869 65.984 29.7196 66.336 29.421C66.688 29.1116 66.864 28.717 66.864 28.237C66.864 27.8636 66.752 27.5596 66.528 27.325C66.3147 27.0903 66.0427 26.909 65.712 26.781C65.392 26.653 64.944 26.5143 64.368 26.365C63.6427 26.173 63.0507 25.981 62.592 25.789C62.144 25.5863 61.76 25.277 61.44 24.861C61.12 24.445 60.96 23.8903 60.96 23.197C60.96 22.557 61.12 21.997 61.44 21.517C61.76 21.037 62.208 20.669 62.784 20.413C63.36 20.157 64.0267 20.029 64.784 20.029C65.8613 20.029 66.7413 20.301 67.424 20.845C68.1173 21.3783 68.5013 22.1143 68.576 23.053H66.56C66.528 22.6476 66.336 22.301 65.984 22.013C65.632 21.725 65.168 21.581 64.592 21.581C64.0693 21.581 63.6427 21.7143 63.312 21.981C62.9813 22.2476 62.816 22.6316 62.816 23.133C62.816 23.4743 62.9173 23.757 63.12 23.981C63.3333 24.1943 63.6 24.365 63.92 24.493C64.24 24.621 64.6773 24.7596 65.232 24.909C65.968 25.1116 66.5653 25.3143 67.024 25.517C67.4933 25.7196 67.888 26.0343 68.208 26.461C68.5387 26.877 68.704 27.437 68.704 28.141C68.704 28.7063 68.5493 29.2396 68.24 29.741C67.9413 30.2423 67.4987 30.6476 66.912 30.957C66.336 31.2556 65.6533 31.405 64.864 31.405ZM78.8403 22.477V31.293H77.0163V30.253C76.7283 30.6156 76.3496 30.9036 75.8803 31.117C75.4216 31.3196 74.9309 31.421 74.4083 31.421C73.7149 31.421 73.0909 31.277 72.5363 30.989C71.9923 30.701 71.5603 30.2743 71.2403 29.709C70.9309 29.1436 70.7763 28.461 70.7763 27.661V22.477H72.5843V27.389C72.5843 28.1783 72.7816 28.7863 73.1763 29.213C73.5709 29.629 74.1096 29.837 74.7923 29.837C75.4749 29.837 76.0136 29.629 76.4083 29.213C76.8136 28.7863 77.0163 28.1783 77.0163 27.389V22.477H78.8403ZM83.0709 23.789C83.3802 23.3623 83.8015 23.0156 84.3349 22.749C84.8789 22.4716 85.4815 22.333 86.1429 22.333C86.9215 22.333 87.6255 22.5196 88.2549 22.893C88.8842 23.2663 89.3802 23.7996 89.7429 24.493C90.1055 25.1756 90.2869 25.9596 90.2869 26.845C90.2869 27.7303 90.1055 28.525 89.7429 29.229C89.3802 29.9223 88.8789 30.4663 88.2389 30.861C87.6095 31.245 86.9109 31.437 86.1429 31.437C85.4602 31.437 84.8522 31.3036 84.3189 31.037C83.7962 30.7703 83.3802 30.429 83.0709 30.013V31.293H81.2469V19.453H83.0709V23.789ZM88.4309 26.845C88.4309 26.237 88.3029 25.7143 88.0469 25.277C87.8015 24.829 87.4709 24.493 87.0549 24.269C86.6495 24.0343 86.2122 23.917 85.7429 23.917C85.2842 23.917 84.8469 24.0343 84.4309 24.269C84.0255 24.5036 83.6949 24.845 83.4389 25.293C83.1935 25.741 83.0709 26.269 83.0709 26.877C83.0709 27.485 83.1935 28.0183 83.4389 28.477C83.6949 28.925 84.0255 29.2663 84.4309 29.501C84.8469 29.7356 85.2842 29.853 85.7429 29.853C86.2122 29.853 86.6495 29.7356 87.0549 29.501C87.4709 29.2556 87.8015 28.9036 88.0469 28.445C88.3029 27.9863 88.4309 27.453 88.4309 26.845ZM102.763 22.333C103.456 22.333 104.075 22.477 104.619 22.765C105.173 23.053 105.605 23.4796 105.915 24.045C106.235 24.6103 106.395 25.293 106.395 26.093V31.293H104.587V26.365C104.587 25.5756 104.389 24.973 103.995 24.557C103.6 24.1303 103.061 23.917 102.379 23.917C101.696 23.917 101.152 24.1303 100.747 24.557C100.352 24.973 100.155 25.5756 100.155 26.365V31.293H98.3466V26.365C98.3466 25.5756 98.1493 24.973 97.7546 24.557C97.36 24.1303 96.8213 23.917 96.1386 23.917C95.456 23.917 94.912 24.1303 94.5066 24.557C94.112 24.973 93.9146 25.5756 93.9146 26.365V31.293H92.0906V22.477H93.9146V23.485C94.2133 23.1223 94.592 22.8396 95.0506 22.637C95.5093 22.4343 96 22.333 96.5226 22.333C97.2266 22.333 97.856 22.4823 98.4106 22.781C98.9653 23.0796 99.392 23.5116 99.6906 24.077C99.9573 23.5436 100.373 23.1223 100.939 22.813C101.504 22.493 102.112 22.333 102.763 22.333ZM109.644 21.309C109.313 21.309 109.036 21.197 108.812 20.973C108.588 20.749 108.476 20.4716 108.476 20.141C108.476 19.8103 108.588 19.533 108.812 19.309C109.036 19.085 109.313 18.973 109.644 18.973C109.964 18.973 110.236 19.085 110.46 19.309C110.684 19.533 110.796 19.8103 110.796 20.141C110.796 20.4716 110.684 20.749 110.46 20.973C110.236 21.197 109.964 21.309 109.644 21.309ZM110.54 22.477V31.293H108.716V22.477H110.54ZM115.062 23.965V28.845C115.062 29.1756 115.137 29.4156 115.286 29.565C115.446 29.7036 115.713 29.773 116.086 29.773H117.206V31.293H115.766C114.945 31.293 114.316 31.101 113.878 30.717C113.441 30.333 113.222 29.709 113.222 28.845V23.965H112.182V22.477H113.222V20.285H115.062V22.477H117.206V23.965H115.062Z" fill="white"/>
</svg>
