<svg width="20" height="15" viewBox="0 0 20 15" fill="none" xmlns="http://www.w3.org/2000/svg">
<path fill-rule="evenodd" clip-rule="evenodd" d="M1.5564 0.862583L7.3805 6.68921C8.65075 7.95702 10.7272 7.95811 11.9985 6.68921L17.8226 0.862583C17.8812 0.803929 17.8727 0.707338 17.8046 0.659885C17.2106 0.245604 16.4879 0 15.7093 0H3.6697C2.89112 0 2.16837 0.245646 1.57434 0.659885C1.5063 0.707338 1.49775 0.803929 1.5564 0.862583ZM0 3.66966C0 3.05744 0.151792 2.47899 0.419165 1.97056C0.460976 1.89102 0.566957 1.87494 0.630495 1.93847L6.38086 7.68884C8.20182 9.51245 11.1761 9.51351 12.9982 7.68884L18.7485 1.93847C18.8121 1.87494 18.918 1.89102 18.9599 1.97056C19.2272 2.47899 19.379 3.05748 19.379 3.66966V11.3303C19.379 13.3553 17.7318 15 15.7093 15H3.6697C1.64727 15 0 13.3553 0 11.3303V3.66966Z" fill="#777777"/>
</svg>
