<svg width="24" height="24" viewBox="0 0 24 24" fill="none" xmlns="http://www.w3.org/2000/svg">
<g clip-path="url(#clip0_64_7144)">
<path d="M15.834 15.651C15.834 14.5921 12.8306 13.7344 9.12565 13.7344M15.834 15.651C15.834 16.71 12.8306 17.5677 9.12565 17.5677C5.42073 17.5677 2.41732 16.71 2.41732 15.651M15.834 15.651V20.3823C15.834 21.4739 12.8306 22.3594 9.12565 22.3594C5.42073 22.3594 2.41732 21.4748 2.41732 20.3823V15.651M15.834 15.651C19.4987 15.651 22.5423 14.7052 22.5423 13.7344V4.15104M9.12565 13.7344C5.42073 13.7344 2.41732 14.5921 2.41732 15.651M9.12565 13.7344C4.89173 13.7344 1.45898 12.7885 1.45898 11.8177V7.02604M9.12565 5.10937C4.89173 5.10937 1.45898 5.96708 1.45898 7.02604M1.45898 7.02604C1.45898 8.085 4.89173 8.94271 9.12565 8.94271C9.12565 9.9135 12.2431 10.8594 15.9078 10.8594C19.5724 10.8594 22.5423 9.9135 22.5423 8.94271M22.5423 4.15104C22.5423 3.09208 19.5715 2.23438 15.9078 2.23438C12.2441 2.23438 9.27323 3.09208 9.27323 4.15104M22.5423 4.15104C22.5423 5.21 19.5715 6.06771 15.9078 6.06771C12.2441 6.06771 9.27323 5.21 9.27323 4.15104M9.27323 4.15104V13.8935" stroke="#FFB800" stroke-width="1.4375"/>
</g>
<defs>
<clipPath id="clip0_64_7144">
<rect width="23" height="23" fill="white" transform="translate(0.5 0.320312)"/>
</clipPath>
</defs>
</svg>
