<svg width="284" height="51" viewBox="0 0 284 51" fill="none" xmlns="http://www.w3.org/2000/svg">
<rect y="0.707031" width="284" height="50" rx="8" fill="#FE4242"/>
<path d="M87.864 31.819C87.1173 31.819 86.4453 31.691 85.848 31.435C85.2507 31.1684 84.7813 30.795 84.44 30.315C84.0987 29.835 83.928 29.275 83.928 28.635H85.88C85.9227 29.115 86.1093 29.5097 86.44 29.819C86.7813 30.1284 87.256 30.283 87.864 30.283C88.4933 30.283 88.984 30.1337 89.336 29.835C89.688 29.5257 89.864 29.131 89.864 28.651C89.864 28.2777 89.752 27.9737 89.528 27.739C89.3147 27.5044 89.0427 27.323 88.712 27.195C88.392 27.067 87.944 26.9284 87.368 26.779C86.6427 26.587 86.0507 26.395 85.592 26.203C85.144 26.0004 84.76 25.691 84.44 25.275C84.12 24.859 83.96 24.3044 83.96 23.611C83.96 22.971 84.12 22.411 84.44 21.931C84.76 21.451 85.208 21.083 85.784 20.827C86.36 20.571 87.0267 20.443 87.784 20.443C88.8613 20.443 89.7413 20.715 90.424 21.259C91.1173 21.7924 91.5013 22.5284 91.576 23.467H89.56C89.528 23.0617 89.336 22.715 88.984 22.427C88.632 22.139 88.168 21.995 87.592 21.995C87.0693 21.995 86.6427 22.1284 86.312 22.395C85.9813 22.6617 85.816 23.0457 85.816 23.547C85.816 23.8884 85.9173 24.171 86.12 24.395C86.3333 24.6084 86.6 24.779 86.92 24.907C87.24 25.035 87.6773 25.1737 88.232 25.323C88.968 25.5257 89.5653 25.7284 90.024 25.931C90.4933 26.1337 90.888 26.4484 91.208 26.875C91.5387 27.291 91.704 27.851 91.704 28.555C91.704 29.1204 91.5493 29.6537 91.24 30.155C90.9413 30.6564 90.4987 31.0617 89.912 31.371C89.336 31.6697 88.6533 31.819 87.864 31.819ZM93.2483 27.259C93.2483 26.3737 93.4296 25.5897 93.7923 24.907C94.1656 24.2244 94.6669 23.6964 95.2963 23.323C95.9363 22.939 96.6403 22.747 97.4083 22.747C98.1016 22.747 98.7043 22.8857 99.2163 23.163C99.7389 23.4297 100.155 23.7657 100.464 24.171V22.891H102.304V31.707H100.464V30.395C100.155 30.811 99.7336 31.1577 99.2003 31.435C98.6669 31.7124 98.0589 31.851 97.3763 31.851C96.6189 31.851 95.9256 31.659 95.2963 31.275C94.6669 30.8804 94.1656 30.3364 93.7923 29.643C93.4296 28.939 93.2483 28.1444 93.2483 27.259ZM100.464 27.291C100.464 26.683 100.336 26.155 100.08 25.707C99.8349 25.259 99.5096 24.9177 99.1043 24.683C98.6989 24.4484 98.2616 24.331 97.7923 24.331C97.3229 24.331 96.8856 24.4484 96.4803 24.683C96.0749 24.907 95.7443 25.243 95.4883 25.691C95.2429 26.1284 95.1203 26.651 95.1203 27.259C95.1203 27.867 95.2429 28.4004 95.4883 28.859C95.7443 29.3177 96.0749 29.6697 96.4803 29.915C96.8963 30.1497 97.3336 30.267 97.7923 30.267C98.2616 30.267 98.6989 30.1497 99.1043 29.915C99.5096 29.6804 99.8349 29.339 100.08 28.891C100.336 28.4324 100.464 27.899 100.464 27.291ZM108.108 30.075L110.604 22.891H112.54L109.18 31.707H107.004L103.66 22.891H105.612L108.108 30.075ZM121.999 27.083C121.999 27.4137 121.977 27.7124 121.935 27.979H115.199C115.252 28.683 115.513 29.2484 115.983 29.675C116.452 30.1017 117.028 30.315 117.711 30.315C118.692 30.315 119.385 29.9044 119.791 29.083H121.759C121.492 29.8937 121.007 30.5604 120.303 31.083C119.609 31.595 118.745 31.851 117.711 31.851C116.868 31.851 116.111 31.6644 115.439 31.291C114.777 30.907 114.255 30.3737 113.871 29.691C113.497 28.9977 113.311 28.1977 113.311 27.291C113.311 26.3844 113.492 25.5897 113.855 24.907C114.228 24.2137 114.745 23.6804 115.407 23.307C116.079 22.9337 116.847 22.747 117.711 22.747C118.543 22.747 119.284 22.9284 119.935 23.291C120.585 23.6537 121.092 24.1657 121.455 24.827C121.817 25.4777 121.999 26.2297 121.999 27.083ZM120.095 26.507C120.084 25.835 119.844 25.2964 119.375 24.891C118.905 24.4857 118.324 24.283 117.631 24.283C117.001 24.283 116.463 24.4857 116.015 24.891C115.567 25.2857 115.3 25.8244 115.215 26.507H120.095ZM127.342 26.123C127.342 25.035 127.593 24.059 128.094 23.195C128.606 22.331 129.294 21.659 130.158 21.179C131.033 20.6884 131.987 20.443 133.022 20.443C134.206 20.443 135.257 20.7364 136.174 21.323C137.102 21.899 137.774 22.7204 138.19 23.787H135.998C135.71 23.2004 135.31 22.763 134.798 22.475C134.286 22.187 133.694 22.043 133.022 22.043C132.286 22.043 131.63 22.2084 131.054 22.539C130.478 22.8697 130.025 23.3444 129.694 23.963C129.374 24.5817 129.214 25.3017 129.214 26.123C129.214 26.9444 129.374 27.6644 129.694 28.283C130.025 28.9017 130.478 29.3817 131.054 29.723C131.63 30.0537 132.286 30.219 133.022 30.219C133.694 30.219 134.286 30.075 134.798 29.787C135.31 29.499 135.71 29.0617 135.998 28.475H138.19C137.774 29.5417 137.102 30.363 136.174 30.939C135.257 31.515 134.206 31.803 133.022 31.803C131.977 31.803 131.022 31.563 130.158 31.083C129.294 30.5924 128.606 29.915 128.094 29.051C127.593 28.187 127.342 27.211 127.342 26.123ZM144.885 22.747C145.557 22.747 146.154 22.891 146.677 23.179C147.21 23.467 147.626 23.8937 147.925 24.459C148.234 25.0244 148.389 25.707 148.389 26.507V31.707H146.581V26.779C146.581 25.9897 146.384 25.387 145.989 24.971C145.594 24.5444 145.056 24.331 144.373 24.331C143.69 24.331 143.146 24.5444 142.741 24.971C142.346 25.387 142.149 25.9897 142.149 26.779V31.707H140.325V19.867H142.149V23.915C142.458 23.5417 142.848 23.2537 143.317 23.051C143.797 22.8484 144.32 22.747 144.885 22.747ZM150.108 27.259C150.108 26.3737 150.289 25.5897 150.652 24.907C151.025 24.2244 151.526 23.6964 152.156 23.323C152.796 22.939 153.5 22.747 154.268 22.747C154.961 22.747 155.564 22.8857 156.076 23.163C156.598 23.4297 157.014 23.7657 157.324 24.171V22.891H159.164V31.707H157.324V30.395C157.014 30.811 156.593 31.1577 156.06 31.435C155.526 31.7124 154.918 31.851 154.236 31.851C153.478 31.851 152.785 31.659 152.156 31.275C151.526 30.8804 151.025 30.3364 150.652 29.643C150.289 28.939 150.108 28.1444 150.108 27.259ZM157.324 27.291C157.324 26.683 157.196 26.155 156.94 25.707C156.694 25.259 156.369 24.9177 155.964 24.683C155.558 24.4484 155.121 24.331 154.652 24.331C154.182 24.331 153.745 24.4484 153.34 24.683C152.934 24.907 152.604 25.243 152.348 25.691C152.102 26.1284 151.98 26.651 151.98 27.259C151.98 27.867 152.102 28.4004 152.348 28.859C152.604 29.3177 152.934 29.6697 153.34 29.915C153.756 30.1497 154.193 30.267 154.652 30.267C155.121 30.267 155.558 30.1497 155.964 29.915C156.369 29.6804 156.694 29.339 156.94 28.891C157.196 28.4324 157.324 27.899 157.324 27.291ZM166.007 22.747C166.701 22.747 167.319 22.891 167.863 23.179C168.418 23.467 168.85 23.8937 169.159 24.459C169.469 25.0244 169.623 25.707 169.623 26.507V31.707H167.815V26.779C167.815 25.9897 167.618 25.387 167.223 24.971C166.829 24.5444 166.29 24.331 165.607 24.331C164.925 24.331 164.381 24.5444 163.975 24.971C163.581 25.387 163.383 25.9897 163.383 26.779V31.707H161.559V22.891H163.383V23.899C163.682 23.5364 164.061 23.2537 164.519 23.051C164.989 22.8484 165.485 22.747 166.007 22.747ZM175.502 22.747C176.185 22.747 176.787 22.8857 177.31 23.163C177.843 23.4297 178.259 23.7657 178.558 24.171V22.891H180.398V31.851C180.398 32.6617 180.227 33.3817 179.886 34.011C179.545 34.651 179.049 35.1524 178.398 35.515C177.758 35.8777 176.99 36.059 176.094 36.059C174.899 36.059 173.907 35.7764 173.118 35.211C172.329 34.6564 171.881 33.899 171.774 32.939H173.582C173.721 33.3977 174.014 33.7657 174.462 34.043C174.921 34.331 175.465 34.475 176.094 34.475C176.83 34.475 177.422 34.251 177.87 33.803C178.329 33.355 178.558 32.7044 178.558 31.851V30.379C178.249 30.795 177.827 31.147 177.294 31.435C176.771 31.7124 176.174 31.851 175.502 31.851C174.734 31.851 174.03 31.659 173.39 31.275C172.761 30.8804 172.259 30.3364 171.886 29.643C171.523 28.939 171.342 28.1444 171.342 27.259C171.342 26.3737 171.523 25.5897 171.886 24.907C172.259 24.2244 172.761 23.6964 173.39 23.323C174.03 22.939 174.734 22.747 175.502 22.747ZM178.558 27.291C178.558 26.683 178.43 26.155 178.174 25.707C177.929 25.259 177.603 24.9177 177.198 24.683C176.793 24.4484 176.355 24.331 175.886 24.331C175.417 24.331 174.979 24.4484 174.574 24.683C174.169 24.907 173.838 25.243 173.582 25.691C173.337 26.1284 173.214 26.651 173.214 27.259C173.214 27.867 173.337 28.4004 173.582 28.859C173.838 29.3177 174.169 29.6697 174.574 29.915C174.99 30.1497 175.427 30.267 175.886 30.267C176.355 30.267 176.793 30.1497 177.198 29.915C177.603 29.6804 177.929 29.339 178.174 28.891C178.43 28.4324 178.558 27.899 178.558 27.291ZM190.874 27.083C190.874 27.4137 190.852 27.7124 190.81 27.979H184.074C184.127 28.683 184.388 29.2484 184.858 29.675C185.327 30.1017 185.903 30.315 186.586 30.315C187.567 30.315 188.26 29.9044 188.666 29.083H190.634C190.367 29.8937 189.882 30.5604 189.178 31.083C188.484 31.595 187.62 31.851 186.586 31.851C185.743 31.851 184.986 31.6644 184.314 31.291C183.652 30.907 183.13 30.3737 182.746 29.691C182.372 28.9977 182.186 28.1977 182.186 27.291C182.186 26.3844 182.367 25.5897 182.73 24.907C183.103 24.2137 183.62 23.6804 184.282 23.307C184.954 22.9337 185.722 22.747 186.586 22.747C187.418 22.747 188.159 22.9284 188.81 23.291C189.46 23.6537 189.967 24.1657 190.33 24.827C190.692 25.4777 190.874 26.2297 190.874 27.083ZM188.97 26.507C188.959 25.835 188.719 25.2964 188.25 24.891C187.78 24.4857 187.199 24.283 186.506 24.283C185.876 24.283 185.338 24.4857 184.89 24.891C184.442 25.2857 184.175 25.8244 184.09 26.507H188.97ZM195.869 31.851C195.175 31.851 194.551 31.7284 193.997 31.483C193.453 31.227 193.021 30.8857 192.701 30.459C192.381 30.0217 192.21 29.5364 192.189 29.003H194.077C194.109 29.3764 194.285 29.691 194.605 29.947C194.935 30.1924 195.346 30.315 195.837 30.315C196.349 30.315 196.743 30.219 197.021 30.027C197.309 29.8244 197.453 29.5684 197.453 29.259C197.453 28.9284 197.293 28.683 196.973 28.523C196.663 28.363 196.167 28.187 195.485 27.995C194.823 27.8137 194.285 27.6377 193.869 27.467C193.453 27.2964 193.09 27.035 192.781 26.683C192.482 26.331 192.333 25.867 192.333 25.291C192.333 24.8217 192.471 24.395 192.749 24.011C193.026 23.6164 193.421 23.307 193.933 23.083C194.455 22.859 195.053 22.747 195.725 22.747C196.727 22.747 197.533 23.003 198.141 23.515C198.759 24.0164 199.09 24.7044 199.133 25.579H197.309C197.277 25.1844 197.117 24.8697 196.829 24.635C196.541 24.4004 196.151 24.283 195.661 24.283C195.181 24.283 194.813 24.3737 194.557 24.555C194.301 24.7364 194.173 24.9764 194.173 25.275C194.173 25.5097 194.258 25.707 194.429 25.867C194.599 26.027 194.807 26.155 195.053 26.251C195.298 26.3364 195.661 26.4484 196.141 26.587C196.781 26.7577 197.303 26.9337 197.709 27.115C198.125 27.2857 198.482 27.5417 198.781 27.883C199.079 28.2244 199.234 28.6777 199.245 29.243C199.245 29.7444 199.106 30.1924 198.829 30.587C198.551 30.9817 198.157 31.291 197.645 31.515C197.143 31.739 196.551 31.851 195.869 31.851Z" fill="white"/>
</svg>
