<svg width="40" height="38" viewBox="0 0 40 38" fill="none" xmlns="http://www.w3.org/2000/svg">
<rect x="0.585068" width="38.8382" height="38" rx="5" fill="#FFEEF7"/>
<path d="M15.7415 15.4976L15.9006 13.7292C15.9863 12.7751 16.4558 11.8857 17.2159 11.2373C17.976 10.589 18.9712 10.2292 20.0042 10.2292C21.0371 10.2292 22.0323 10.589 22.7924 11.2373C23.5525 11.8857 24.022 12.7751 24.1077 13.7292L24.2668 15.4976M11.5375 21.8133L11.8833 19.9949C12.2925 17.8455 12.4961 16.7708 13.3061 16.1342C14.116 15.4976 15.2792 15.4976 17.6047 15.4976H22.4036C24.7291 15.4976 25.8923 15.4976 26.7023 16.1342C27.5122 16.7708 27.7158 17.8455 28.125 19.9949L28.4708 21.8133C29.0373 24.7881 29.3195 26.2755 28.449 27.2528C27.5775 28.2292 25.9672 28.2292 22.7493 28.2292H17.259C14.0402 28.2292 12.4308 28.2292 11.5593 27.2519C10.6878 26.2747 10.972 24.7881 11.5375 21.8133Z" stroke="#E00079" stroke-width="1.31706" stroke-linecap="round" stroke-linejoin="round"/>
<path d="M22.846 18.1317C22.7228 19.3723 21.4876 20.3268 20.0042 20.3268C18.5207 20.3268 17.2855 19.3723 17.1624 18.1317" stroke="#E00079" stroke-width="1.31706" stroke-linecap="round" stroke-linejoin="round"/>
</svg>
