<svg width="40" height="38" viewBox="0 0 40 38" fill="none" xmlns="http://www.w3.org/2000/svg">
<rect x="0.900406" width="38.8382" height="38" rx="5" fill="#FFF5E7"/>
<path d="M20.3195 16C25.0861 16 28.9502 14.6569 28.9502 13C28.9502 11.3431 25.0861 10 20.3195 10C15.5529 10 11.6888 11.3431 11.6888 13C11.6888 14.6569 15.5529 16 20.3195 16Z" stroke="#FFB800" stroke-width="2" stroke-linecap="round" stroke-linejoin="round"/>
<path d="M28.9502 19C28.9502 20.66 25.1143 22 20.3195 22C15.5247 22 11.6888 20.66 11.6888 19" stroke="#FFB800" stroke-width="2" stroke-linecap="round" stroke-linejoin="round"/>
<path d="M11.6888 13V25.3529C11.6888 26.8176 15.5247 28 20.3195 28C25.1143 28 28.9502 26.8176 28.9502 25.3529V13" stroke="#FFB800" stroke-width="2" stroke-linecap="round" stroke-linejoin="round"/>
</svg>
