<svg width="102" height="36" viewBox="0 0 102 36" fill="none" xmlns="http://www.w3.org/2000/svg">
<rect x="0.900391" y="0.5" width="100.6" height="35" rx="9.5" stroke="#D6D6D6"/>
<path fill-rule="evenodd" clip-rule="evenodd" d="M27.4008 25.8993H19.0008C18.338 25.8993 17.8008 25.3097 17.8008 24.5824V12.7305H28.6008V24.5824C28.6008 25.3097 28.0635 25.8993 27.4008 25.8993Z" stroke="#EF3826" stroke-width="1.2" stroke-linecap="round" stroke-linejoin="round"/>
<path d="M21.4 21.9511V16.6836" stroke="#EF3826" stroke-width="1.2" stroke-linecap="round" stroke-linejoin="round"/>
<path d="M25.0006 21.9511V16.6836" stroke="#EF3826" stroke-width="1.2" stroke-linecap="round" stroke-linejoin="round"/>
<path d="M15.4004 12.7319H31.0004" stroke="#EF3826" stroke-width="1.2" stroke-linecap="round" stroke-linejoin="round"/>
<path fill-rule="evenodd" clip-rule="evenodd" d="M25.0002 10.0977H21.4002C20.7375 10.0977 20.2002 10.6872 20.2002 11.4145V12.7314H26.2002V11.4145C26.2002 10.6872 25.6629 10.0977 25.0002 10.0977Z" stroke="#EF3826" stroke-width="1.2" stroke-linecap="round" stroke-linejoin="round"/>
<path d="M40.704 12.848C41.92 12.848 42.9707 13.0773 43.856 13.536C44.752 13.984 45.4347 14.6293 45.904 15.472C46.384 16.3147 46.624 17.3067 46.624 18.448C46.624 19.5893 46.384 20.5813 45.904 21.424C45.4347 22.256 44.752 22.896 43.856 23.344C42.9707 23.7813 41.92 24 40.704 24H37.232V12.848H40.704ZM40.704 22.8C42.144 22.8 43.2427 22.4213 44 21.664C44.7573 20.896 45.136 19.824 45.136 18.448C45.136 17.0613 44.752 15.9787 43.984 15.2C43.2267 14.4213 42.1333 14.032 40.704 14.032H38.688V22.8H40.704ZM56.5445 19.28C56.5445 19.5573 56.5285 19.8507 56.4965 20.16H49.4885C49.5418 21.024 49.8352 21.7013 50.3685 22.192C50.9125 22.672 51.5685 22.912 52.3365 22.912C52.9658 22.912 53.4885 22.768 53.9045 22.48C54.3312 22.1813 54.6298 21.7867 54.8005 21.296H56.3685C56.1338 22.1387 55.6645 22.8267 54.9605 23.36C54.2565 23.8827 53.3818 24.144 52.3365 24.144C51.5045 24.144 50.7578 23.9573 50.0965 23.584C49.4458 23.2107 48.9338 22.6827 48.5605 22C48.1872 21.3067 48.0005 20.5067 48.0005 19.6C48.0005 18.6933 48.1818 17.8987 48.5445 17.216C48.9072 16.5333 49.4138 16.0107 50.0645 15.648C50.7258 15.2747 51.4832 15.088 52.3365 15.088C53.1685 15.088 53.9045 15.2693 54.5445 15.632C55.1845 15.9947 55.6752 16.496 56.0165 17.136C56.3685 17.7653 56.5445 18.48 56.5445 19.28ZM55.0405 18.976C55.0405 18.4213 54.9178 17.9467 54.6725 17.552C54.4272 17.1467 54.0912 16.8427 53.6645 16.64C53.2485 16.4267 52.7845 16.32 52.2725 16.32C51.5365 16.32 50.9072 16.5547 50.3845 17.024C49.8725 17.4933 49.5792 18.144 49.5045 18.976H55.0405ZM59.9224 12.16V24H58.4664V12.16H59.9224ZM70.4039 19.28C70.4039 19.5573 70.3879 19.8507 70.3559 20.16H63.3479C63.4012 21.024 63.6945 21.7013 64.2279 22.192C64.7719 22.672 65.4279 22.912 66.1959 22.912C66.8252 22.912 67.3479 22.768 67.7639 22.48C68.1905 22.1813 68.4892 21.7867 68.6599 21.296H70.2279C69.9932 22.1387 69.5239 22.8267 68.8199 23.36C68.1159 23.8827 67.2412 24.144 66.1959 24.144C65.3639 24.144 64.6172 23.9573 63.9559 23.584C63.3052 23.2107 62.7932 22.6827 62.4199 22C62.0465 21.3067 61.8599 20.5067 61.8599 19.6C61.8599 18.6933 62.0412 17.8987 62.4039 17.216C62.7665 16.5333 63.2732 16.0107 63.9239 15.648C64.5852 15.2747 65.3425 15.088 66.1959 15.088C67.0279 15.088 67.7639 15.2693 68.4039 15.632C69.0439 15.9947 69.5345 16.496 69.8759 17.136C70.2279 17.7653 70.4039 18.48 70.4039 19.28ZM68.8999 18.976C68.8999 18.4213 68.7772 17.9467 68.5319 17.552C68.2865 17.1467 67.9505 16.8427 67.5239 16.64C67.1079 16.4267 66.6439 16.32 66.1319 16.32C65.3959 16.32 64.7665 16.5547 64.2439 17.024C63.7319 17.4933 63.4385 18.144 63.3639 18.976H68.8999ZM74.1018 16.432V21.6C74.1018 22.0267 74.1924 22.3307 74.3738 22.512C74.5551 22.6827 74.8698 22.768 75.3177 22.768H76.3898V24H75.0778C74.2671 24 73.6591 23.8133 73.2538 23.44C72.8484 23.0667 72.6458 22.4533 72.6458 21.6V16.432H71.5098V15.232H72.6458V13.024H74.1018V15.232H76.3898V16.432H74.1018ZM86.1539 19.28C86.1539 19.5573 86.1379 19.8507 86.1059 20.16H79.0979C79.1512 21.024 79.4445 21.7013 79.9779 22.192C80.5219 22.672 81.1779 22.912 81.9459 22.912C82.5752 22.912 83.0979 22.768 83.5139 22.48C83.9405 22.1813 84.2392 21.7867 84.4099 21.296H85.9779C85.7432 22.1387 85.2739 22.8267 84.5699 23.36C83.8659 23.8827 82.9912 24.144 81.9459 24.144C81.1139 24.144 80.3672 23.9573 79.7059 23.584C79.0552 23.2107 78.5432 22.6827 78.1699 22C77.7965 21.3067 77.6099 20.5067 77.6099 19.6C77.6099 18.6933 77.7912 17.8987 78.1539 17.216C78.5165 16.5333 79.0232 16.0107 79.6739 15.648C80.3352 15.2747 81.0925 15.088 81.9459 15.088C82.7779 15.088 83.5139 15.2693 84.1539 15.632C84.7939 15.9947 85.2845 16.496 85.6259 17.136C85.9779 17.7653 86.1539 18.48 86.1539 19.28ZM84.6499 18.976C84.6499 18.4213 84.5272 17.9467 84.2819 17.552C84.0365 17.1467 83.7005 16.8427 83.2739 16.64C82.8579 16.4267 82.3939 16.32 81.8819 16.32C81.1459 16.32 80.5165 16.5547 79.9939 17.024C79.4819 17.4933 79.1885 18.144 79.1139 18.976H84.6499Z" fill="#EF3826"/>
</svg>
