<svg width="55" height="56" viewBox="0 0 55 56" fill="none" xmlns="http://www.w3.org/2000/svg">
<rect y="0.5" width="55" height="55" rx="9.16667" fill="#F1E8FB"/>
<g clip-path="url(#clip0_64_15595)">
<path fill-rule="evenodd" clip-rule="evenodd" d="M36.7018 23.0951L30.6861 17.0795C30.5248 16.9184 30.3061 16.8279 30.0781 16.8281H19.7656C18.8164 16.8281 18.0469 17.5976 18.0469 18.5469V37.4531C18.0469 38.4024 18.8164 39.1719 19.7656 39.1719H35.2344C36.1836 39.1719 36.9531 38.4024 36.9531 37.4531V23.7031C36.9533 23.4751 36.8629 23.2564 36.7018 23.0951ZM30.9375 19.7618L34.0194 22.8438H30.9375V19.7618ZM35.2344 37.4531H19.7656V18.5469H29.2188V23.7031C29.2188 24.1777 29.6035 24.5625 30.0781 24.5625H35.2344V37.4531ZM31.7969 28.8594C31.7969 29.334 31.4121 29.7188 30.9375 29.7188H24.0625C23.5879 29.7188 23.2031 29.334 23.2031 28.8594C23.2031 28.3848 23.5879 28 24.0625 28H30.9375C31.4121 28 31.7969 28.3848 31.7969 28.8594ZM31.7969 32.2969C31.7969 32.7715 31.4121 33.1562 30.9375 33.1562H24.0625C23.5879 33.1562 23.2031 32.7715 23.2031 32.2969C23.2031 31.8223 23.5879 31.4375 24.0625 31.4375H30.9375C31.4121 31.4375 31.7969 31.8223 31.7969 32.2969Z" fill="#9B33E9"/>
</g>
<defs>
<clipPath id="clip0_64_15595">
<rect width="27.5" height="27.5" fill="white" transform="translate(13.75 14.25)"/>
</clipPath>
</defs>
</svg>
