<svg width="90" height="36" viewBox="0 0 90 36" fill="none" xmlns="http://www.w3.org/2000/svg">
<rect x="0.900391" y="0.5" width="88" height="35" rx="9.5" stroke="#D6D6D6"/>
<g opacity="0.6">
<path fill-rule="evenodd" clip-rule="evenodd" d="M28.5967 19.5635L26.1221 19.952L26.4754 17.2355L32.8394 10.2517C33.4252 9.60882 34.3749 9.60882 34.9607 10.2517C35.5465 10.8945 35.5465 11.9368 34.9607 12.5796L28.5967 19.5635Z" stroke="#0027F1" stroke-width="1.2" stroke-linecap="round" stroke-linejoin="round"/>
<path d="M32.1328 11.0273L34.2541 13.3553" stroke="#0027F1" stroke-width="1.2" stroke-linecap="round" stroke-linejoin="round"/>
<path d="M32.4004 19.6469V25.1339C32.4004 25.74 31.9527 26.2313 31.4004 26.2313H21.4004C20.8481 26.2313 20.4004 25.74 20.4004 25.1339V14.1599C20.4004 13.5538 20.8481 13.0625 21.4004 13.0625H26.4004" stroke="#0027F1" stroke-width="1.2" stroke-linecap="round" stroke-linejoin="round"/>
</g>
<path d="M43.0884 14.032V17.76H47.1524V18.96H43.0884V22.8H47.6324V24H41.6324V12.832H47.6324V14.032H43.0884ZM49.2915 19.584C49.2915 18.688 49.4728 17.904 49.8355 17.232C50.1982 16.5493 50.6942 16.0213 51.3235 15.648C51.9635 15.2747 52.6782 15.088 53.4675 15.088C54.1502 15.088 54.7848 15.248 55.3715 15.568C55.9582 15.8773 56.4062 16.288 56.7155 16.8V12.16H58.1875V24H56.7155V22.352C56.4275 22.8747 56.0008 23.3067 55.4355 23.648C54.8702 23.9787 54.2088 24.144 53.4515 24.144C52.6728 24.144 51.9635 23.952 51.3235 23.568C50.6942 23.184 50.1982 22.6453 49.8355 21.952C49.4728 21.2587 49.2915 20.4693 49.2915 19.584ZM56.7155 19.6C56.7155 18.9387 56.5822 18.3627 56.3155 17.872C56.0488 17.3813 55.6862 17.008 55.2275 16.752C54.7795 16.4853 54.2835 16.352 53.7395 16.352C53.1955 16.352 52.6995 16.48 52.2515 16.736C51.8035 16.992 51.4462 17.3653 51.1795 17.856C50.9128 18.3467 50.7795 18.9227 50.7795 19.584C50.7795 20.256 50.9128 20.8427 51.1795 21.344C51.4462 21.8347 51.8035 22.2133 52.2515 22.48C52.6995 22.736 53.1955 22.864 53.7395 22.864C54.2835 22.864 54.7795 22.736 55.2275 22.48C55.6862 22.2133 56.0488 21.8347 56.3155 21.344C56.5822 20.8427 56.7155 20.2613 56.7155 19.6ZM61.4 13.808C61.1227 13.808 60.888 13.712 60.696 13.52C60.504 13.328 60.408 13.0933 60.408 12.816C60.408 12.5387 60.504 12.304 60.696 12.112C60.888 11.92 61.1227 11.824 61.4 11.824C61.6667 11.824 61.8907 11.92 62.072 12.112C62.264 12.304 62.36 12.5387 62.36 12.816C62.36 13.0933 62.264 13.328 62.072 13.52C61.8907 13.712 61.6667 13.808 61.4 13.808ZM62.104 15.232V24H60.648V15.232H62.104ZM66.3615 16.432V21.6C66.3615 22.0267 66.4522 22.3307 66.6335 22.512C66.8148 22.6827 67.1295 22.768 67.5775 22.768H68.6495V24H67.3375C66.5268 24 65.9188 23.8133 65.5135 23.44C65.1082 23.0667 64.9055 22.4533 64.9055 21.6V16.432H63.7695V15.232H64.9055V13.024H66.3615V15.232H68.6495V16.432H66.3615Z" fill="#667DF7"/>
</svg>
