<svg width="35" height="31" viewBox="0 0 35 31" fill="none" xmlns="http://www.w3.org/2000/svg">
<path d="M12.6205 26.6763L12.0244 27.4325L12.0244 27.4325L12.6205 26.6763ZM17.559 4.87885L16.8653 5.54657C17.0468 5.73516 17.2973 5.84172 17.559 5.84172C17.8208 5.84172 18.0713 5.73516 18.2528 5.54657L17.559 4.87885ZM22.4976 26.6763L21.9015 25.9202L21.9015 25.9202L22.4976 26.6763ZM13.2166 25.9202C10.7682 23.9901 8.04597 22.0727 5.88911 19.644C3.76526 17.2525 2.26756 14.4414 2.26756 10.7897H0.341819C0.341819 15.0424 2.11077 18.2896 4.44921 20.9227C6.75465 23.5187 9.69031 25.5925 12.0244 27.4325L13.2166 25.9202ZM2.26756 10.7897C2.26756 7.19774 4.2976 4.17226 7.08933 2.89615C9.82037 1.64779 13.4546 2.00301 16.8653 5.54657L18.2528 4.21114C14.3493 0.155516 9.85634 -0.48604 6.28875 1.14472C2.78185 2.74773 0.341819 6.47726 0.341819 10.7897H2.26756ZM12.0244 27.4325C12.8594 28.0907 13.7394 28.7793 14.6273 29.2981C15.5149 29.8167 16.5019 30.2222 17.559 30.2222V28.2965C16.9908 28.2965 16.3523 28.0757 15.5989 27.6354C14.8458 27.1953 14.0693 26.5924 13.2166 25.9202L12.0244 27.4325ZM23.0936 27.4325C25.4278 25.5925 28.3634 23.5187 30.6689 20.9227C33.0073 18.2896 34.7763 15.0424 34.7763 10.7897H32.8505C32.8505 14.4414 31.3528 17.2525 29.229 19.644C27.0721 22.0727 24.3499 23.9901 21.9015 25.9202L23.0936 27.4325ZM34.7763 10.7897C34.7763 6.47726 32.3362 2.74773 28.8293 1.14472C25.2617 -0.48604 20.7688 0.155516 16.8653 4.21114L18.2528 5.54657C21.6635 2.00301 25.2977 1.64779 28.0288 2.89615C30.8205 4.17226 32.8505 7.19774 32.8505 10.7897H34.7763ZM21.9015 25.9202C21.0488 26.5924 20.2723 27.1953 19.5192 27.6354C18.7658 28.0757 18.1273 28.2965 17.559 28.2965V30.2222C18.6162 30.2222 19.6032 29.8167 20.4908 29.2981C21.3786 28.7793 22.2587 28.0907 23.0936 27.4325L21.9015 25.9202Z" fill="black"/>
</svg>
