<svg width="40" height="56" viewBox="0 0 40 56" fill="none" xmlns="http://www.w3.org/2000/svg">
<rect width="40" height="56" rx="8" fill="#FFEBEB"/>
<path d="M18.3333 21V22.7842L20 23.8342V22.5789H28.3333V34.4211H24.1667V36H30V21H18.3333ZM16.25 23.3684L10 27.3158V36H22.5V27.3158L16.25 23.3684ZM21.6667 24.1579V24.8921L23.0083 25.7368H23.3333V24.1579H21.6667ZM25 24.1579V25.7368H26.6667V24.1579H25ZM16.25 25.3421L20.8333 28.1053V34.4211H18.3333V29.6842H14.1667V34.4211H11.6667V28.1053L16.25 25.3421ZM25 27.3158V28.8947H26.6667V27.3158H25ZM25 30.4737V32.0526H26.6667V30.4737H25Z" fill="#FC3030"/>
</svg>
