<svg width="65" height="65" viewBox="0 0 65 65" fill="none" xmlns="http://www.w3.org/2000/svg">
<g clip-path="url(#clip0_64_9504)">
<path d="M32.563 64.1768C50.1167 64.1768 64.3467 49.9468 64.3467 32.3931C64.3467 14.8394 50.1167 0.609375 32.563 0.609375C15.0094 0.609375 0.779297 14.8394 0.779297 32.3931C0.779297 49.9468 15.0094 64.1768 32.563 64.1768Z" fill="#E24C4B"/>
<path d="M64.3472 32.3934C64.3472 49.8745 50.0445 64.1771 32.5634 64.1771C22.4324 64.1771 13.4933 59.6082 7.73242 52.2583C13.0959 56.6285 20.0486 59.211 27.5972 59.211C45.0783 59.211 59.3809 44.9083 59.3809 27.4273C59.3809 19.8787 56.7985 12.926 52.4282 7.5625C59.7783 13.3231 64.3472 22.2622 64.3472 32.3934Z" fill="#D1403F"/>
<path d="M49.8454 23.2555L29.1861 45.9015C27.7955 47.4907 25.4118 47.4907 24.0212 45.9015L15.2806 36.1677C14.0888 34.7771 14.0888 32.592 15.4793 31.2014C16.8699 30.0096 19.0549 30.0096 20.4455 31.4001L26.6036 38.3528L44.6805 18.6866C46.0711 17.296 48.2562 17.0974 49.6468 18.488C51.0373 19.6798 51.0373 22.0637 49.8454 23.2555Z" fill="white"/>
</g>
<defs>
<clipPath id="clip0_64_9504">
<rect width="63.5673" height="63.5673" fill="white" transform="translate(0.779297 0.609375)"/>
</clipPath>
</defs>
</svg>
