<svg width="138" height="45" viewBox="0 0 138 45" fill="none" xmlns="http://www.w3.org/2000/svg">
<rect x="0.392578" y="0.222656" width="136.916" height="44.2637" rx="5.65273" fill="#F70000"/>
<path d="M20.1845 16.8791V23.5568C20.1845 24.3507 20.3905 24.9487 20.8025 25.3506C21.2246 25.7526 21.8075 25.9536 22.5511 25.9536C23.3048 25.9536 23.8877 25.7526 24.2997 25.3506C24.7218 24.9487 24.9328 24.3507 24.9328 23.5568V16.8791H26.6512V23.5267C26.6512 24.3809 26.4653 25.1044 26.0935 25.6973C25.7217 26.2902 25.2242 26.7324 24.6012 27.0238C23.9781 27.3153 23.2897 27.461 22.536 27.461C21.7823 27.461 21.094 27.3153 20.4709 27.0238C19.8579 26.7324 19.3705 26.2902 19.0087 25.6973C18.6469 25.1044 18.4661 24.3809 18.4661 23.5267V16.8791H20.1845ZM30.6071 20.2707C30.8985 19.8888 31.2954 19.5673 31.7979 19.306C32.3004 19.0447 32.8682 18.9141 33.5013 18.9141C34.2248 18.9141 34.883 19.0949 35.476 19.4567C36.0789 19.8084 36.5512 20.3059 36.8929 20.949C37.2346 21.5922 37.4054 22.3308 37.4054 23.1649C37.4054 23.999 37.2346 24.7477 36.8929 25.4109C36.5512 26.0641 36.0789 26.5766 35.476 26.9485C34.883 27.3102 34.2248 27.4911 33.5013 27.4911C32.8682 27.4911 32.3054 27.3655 31.813 27.1143C31.3206 26.853 30.9186 26.5314 30.6071 26.1496V31.3048H28.8886V19.0497H30.6071V20.2707ZM35.6568 23.1649C35.6568 22.5921 35.5363 22.0997 35.2951 21.6877C35.0639 21.2656 34.7524 20.949 34.3605 20.738C33.9786 20.5169 33.5666 20.4064 33.1244 20.4064C32.6923 20.4064 32.2803 20.5169 31.8884 20.738C31.5065 20.9591 31.195 21.2807 30.9538 21.7027C30.7226 22.1248 30.6071 22.6222 30.6071 23.1951C30.6071 23.7679 30.7226 24.2703 30.9538 24.7025C31.195 25.1245 31.5065 25.4461 31.8884 25.6672C32.2803 25.8883 32.6923 25.9988 33.1244 25.9988C33.5666 25.9988 33.9786 25.8883 34.3605 25.6672C34.7524 25.4361 35.0639 25.1044 35.2951 24.6723C35.5363 24.2402 35.6568 23.7377 35.6568 23.1649ZM40.8232 16.2007V27.3555H39.1048V16.2007H40.8232ZM46.682 27.4911C45.8982 27.4911 45.1897 27.3153 44.5566 26.9635C43.9235 26.6018 43.4261 26.0993 43.0643 25.4562C42.7025 24.8029 42.5216 24.0492 42.5216 23.1951C42.5216 22.3509 42.7075 21.6022 43.0794 20.949C43.4512 20.2958 43.9587 19.7934 44.6018 19.4416C45.245 19.0899 45.9635 18.9141 46.7574 18.9141C47.5513 18.9141 48.2698 19.0899 48.913 19.4416C49.5561 19.7934 50.0636 20.2958 50.4354 20.949C50.8073 21.6022 50.9932 22.3509 50.9932 23.1951C50.9932 24.0392 50.8022 24.7879 50.4204 25.4411C50.0385 26.0943 49.5159 26.6018 48.8527 26.9635C48.1995 27.3153 47.4759 27.4911 46.682 27.4911ZM46.682 25.9988C47.1242 25.9988 47.5362 25.8933 47.9181 25.6823C48.31 25.4712 48.6266 25.1547 48.8678 24.7326C49.1089 24.3105 49.2295 23.798 49.2295 23.1951C49.2295 22.5921 49.114 22.0846 48.8828 21.6726C48.6517 21.2505 48.3452 20.934 47.9633 20.7229C47.5814 20.5119 47.1694 20.4064 46.7273 20.4064C46.2851 20.4064 45.8731 20.5119 45.4912 20.7229C45.1194 20.934 44.8229 21.2505 44.6018 21.6726C44.3807 22.0846 44.2702 22.5921 44.2702 23.1951C44.2702 24.0894 44.4963 24.7828 44.9485 25.2753C45.4108 25.7576 45.9886 25.9988 46.682 25.9988ZM52.1191 23.1649C52.1191 22.3308 52.29 21.5922 52.6316 20.949C52.9834 20.3059 53.4557 19.8084 54.0486 19.4567C54.6516 19.0949 55.3148 18.9141 56.0384 18.9141C56.6916 18.9141 57.2594 19.0447 57.7417 19.306C58.2341 19.5572 58.6261 19.8738 58.9175 20.2556V19.0497H60.651V27.3555H58.9175V26.1194C58.6261 26.5113 58.2291 26.8379 57.7266 27.0992C57.2242 27.3605 56.6514 27.4911 56.0082 27.4911C55.2947 27.4911 54.6415 27.3102 54.0486 26.9485C53.4557 26.5766 52.9834 26.0641 52.6316 25.4109C52.29 24.7477 52.1191 23.999 52.1191 23.1649ZM58.9175 23.1951C58.9175 22.6222 58.7969 22.1248 58.5557 21.7027C58.3246 21.2807 58.0181 20.9591 57.6362 20.738C57.2543 20.5169 56.8423 20.4064 56.4001 20.4064C55.958 20.4064 55.5459 20.5169 55.1641 20.738C54.7822 20.949 54.4707 21.2656 54.2295 21.6877C53.9984 22.0997 53.8828 22.5921 53.8828 23.1649C53.8828 23.7377 53.9984 24.2402 54.2295 24.6723C54.4707 25.1044 54.7822 25.4361 55.1641 25.6672C55.556 25.8883 55.968 25.9988 56.4001 25.9988C56.8423 25.9988 57.2543 25.8883 57.6362 25.6672C58.0181 25.4461 58.3246 25.1245 58.5557 24.7025C58.7969 24.2703 58.9175 23.7679 58.9175 23.1951ZM62.3353 23.1649C62.3353 22.3308 62.5061 21.5922 62.8478 20.949C63.1995 20.3059 63.6718 19.8084 64.2647 19.4567C64.8677 19.0949 65.536 18.9141 66.2696 18.9141C66.8122 18.9141 67.3448 19.0346 67.8674 19.2758C68.4 19.507 68.8221 19.8185 69.1336 20.2104V16.2007H70.8671V27.3555H69.1336V26.1043C68.8522 26.5063 68.4603 26.8379 67.9579 27.0992C67.4654 27.3605 66.8977 27.4911 66.2545 27.4911C65.5309 27.4911 64.8677 27.3102 64.2647 26.9485C63.6718 26.5766 63.1995 26.0641 62.8478 25.4109C62.5061 24.7477 62.3353 23.999 62.3353 23.1649ZM69.1336 23.1951C69.1336 22.6222 69.013 22.1248 68.7718 21.7027C68.5407 21.2807 68.2342 20.9591 67.8523 20.738C67.4705 20.5169 67.0584 20.4064 66.6163 20.4064C66.1741 20.4064 65.7621 20.5169 65.3802 20.738C64.9983 20.949 64.6868 21.2656 64.4456 21.6877C64.2145 22.0997 64.0989 22.5921 64.0989 23.1649C64.0989 23.7377 64.2145 24.2402 64.4456 24.6723C64.6868 25.1044 64.9983 25.4361 65.3802 25.6672C65.7721 25.8883 66.1842 25.9988 66.6163 25.9988C67.0584 25.9988 67.4705 25.8883 67.8523 25.6672C68.2342 25.4461 68.5407 25.1245 68.7718 24.7025C69.013 24.2703 69.1336 23.7679 69.1336 23.1951ZM84.3659 19.9994C84.3659 20.532 84.2402 21.0345 83.989 21.5068C83.7378 21.9791 83.3358 22.366 82.7831 22.6675C82.2304 22.9589 81.5219 23.1046 80.6577 23.1046H78.7583V27.3555H77.0399V16.8791H80.6577C81.4616 16.8791 82.1399 17.0198 82.6926 17.3011C83.2554 17.5725 83.6725 17.9443 83.9438 18.4166C84.2252 18.8889 84.3659 19.4165 84.3659 19.9994ZM80.6577 21.7027C81.3109 21.7027 81.7983 21.557 82.1198 21.2656C82.4414 20.9641 82.6022 20.542 82.6022 19.9994C82.6022 18.8538 81.954 18.2809 80.6577 18.2809H78.7583V21.7027H80.6577ZM90.3009 18.9141C90.934 18.9141 91.4967 19.0497 91.9892 19.3211C92.4916 19.5924 92.8835 19.9944 93.1649 20.527C93.4564 21.0596 93.6021 21.7027 93.6021 22.4564V27.3555H91.8987V22.7127C91.8987 21.969 91.7128 21.4013 91.341 21.0093C90.9691 20.6074 90.4617 20.4064 89.8185 20.4064C89.1753 20.4064 88.6628 20.6074 88.281 21.0093C87.9091 21.4013 87.7232 21.969 87.7232 22.7127V27.3555H86.0048V16.2007H87.7232V20.0145C88.0147 19.6627 88.3815 19.3914 88.8236 19.2005C89.2758 19.0095 89.7683 18.9141 90.3009 18.9141ZM99.3967 27.4911C98.6129 27.4911 97.9044 27.3153 97.2713 26.9635C96.6382 26.6018 96.1407 26.0993 95.779 25.4562C95.4172 24.8029 95.2363 24.0492 95.2363 23.1951C95.2363 22.3509 95.4222 21.6022 95.794 20.949C96.1659 20.2958 96.6733 19.7934 97.3165 19.4416C97.9597 19.0899 98.6782 18.9141 99.4721 18.9141C100.266 18.9141 100.984 19.0899 101.628 19.4416C102.271 19.7934 102.778 20.2958 103.15 20.949C103.522 21.6022 103.708 22.3509 103.708 23.1951C103.708 24.0392 103.517 24.7879 103.135 25.4411C102.753 26.0943 102.231 26.6018 101.567 26.9635C100.914 27.3153 100.191 27.4911 99.3967 27.4911ZM99.3967 25.9988C99.8389 25.9988 100.251 25.8933 100.633 25.6823C101.025 25.4712 101.341 25.1547 101.582 24.7326C101.824 24.3105 101.944 23.798 101.944 23.1951C101.944 22.5921 101.829 22.0846 101.598 21.6726C101.366 21.2505 101.06 20.934 100.678 20.7229C100.296 20.5119 99.8841 20.4064 99.4419 20.4064C98.9998 20.4064 98.5877 20.5119 98.2059 20.7229C97.834 20.934 97.5376 21.2505 97.3165 21.6726C97.0954 22.0846 96.9849 22.5921 96.9849 23.1951C96.9849 24.0894 97.211 24.7828 97.6632 25.2753C98.1255 25.7576 98.7033 25.9988 99.3967 25.9988ZM107.411 20.4516V25.0492C107.411 25.3607 107.482 25.5868 107.622 25.7275C107.773 25.8581 108.024 25.9234 108.376 25.9234H109.431V27.3555H108.075C107.301 27.3555 106.708 27.1746 106.296 26.8128C105.884 26.451 105.678 25.8631 105.678 25.0492V20.4516H104.698V19.0497H105.678V16.9846H107.411V19.0497H109.431V20.4516H107.411ZM114.618 27.4911C113.834 27.4911 113.126 27.3153 112.492 26.9635C111.859 26.6018 111.362 26.0993 111 25.4562C110.638 24.8029 110.457 24.0492 110.457 23.1951C110.457 22.3509 110.643 21.6022 111.015 20.949C111.387 20.2958 111.895 19.7934 112.538 19.4416C113.181 19.0899 113.899 18.9141 114.693 18.9141C115.487 18.9141 116.206 19.0899 116.849 19.4416C117.492 19.7934 117.999 20.2958 118.371 20.949C118.743 21.6022 118.929 22.3509 118.929 23.1951C118.929 24.0392 118.738 24.7879 118.356 25.4411C117.974 26.0943 117.452 26.6018 116.789 26.9635C116.135 27.3153 115.412 27.4911 114.618 27.4911ZM114.618 25.9988C115.06 25.9988 115.472 25.8933 115.854 25.6823C116.246 25.4712 116.562 25.1547 116.804 24.7326C117.045 24.3105 117.165 23.798 117.165 23.1951C117.165 22.5921 117.05 22.0846 116.819 21.6726C116.588 21.2505 116.281 20.934 115.899 20.7229C115.517 20.5119 115.105 20.4064 114.663 20.4064C114.221 20.4064 113.809 20.5119 113.427 20.7229C113.055 20.934 112.759 21.2505 112.538 21.6726C112.317 22.0846 112.206 22.5921 112.206 23.1951C112.206 24.0894 112.432 24.7828 112.884 25.2753C113.347 25.7576 113.924 25.9988 114.618 25.9988Z" fill="white"/>
</svg>
