<svg xmlns="http://www.w3.org/2000/svg" viewBox="0 0 16 16" id="user"><path fill="#231f20" d="M5.143 2.25A2.896 2.896 0 0 0 2.25 5.143v5.714a2.897 2.897 0 0 0 2.893 2.895h5.714a2.899 2.899 0 0 0 2.893-2.895V5.143a2.896 2.896 0 0 0-2.893-2.893H5.143zm0 .5h5.714a2.397 2.397 0 0 1 2.395 2.393v5.714a2.38 2.38 0 0 1-.764 1.743c-.613-1.961-2.452-3.356-4.535-3.356a4.732 4.732 0 0 0-4.514 3.29 2.385 2.385 0 0 1-.689-1.677V5.143A2.395 2.395 0 0 1 5.143 2.75zm2.841 1.527a2.244 2.244 0 0 0-2.242 2.24A2.246 2.246 0 0 0 7.984 8.76a2.242 2.242 0 0 0 0-4.482zm0 .5a1.742 1.742 0 0 1 0 3.483c-.96 0-1.742-.782-1.742-1.742s.782-1.74 1.742-1.74zm-.03 4.967c1.923 0 3.617 1.324 4.11 3.168-.356.21-.764.34-1.205.34H5.143v-.002c-.475 0-.917-.143-1.29-.383a4.241 4.241 0 0 1 4.1-3.123z"></path></svg>